<?xml version="1.0" encoding="UTF-8"?>
<svg xmlns="http://www.w3.org/2000/svg" xmlns:xlink="http://www.w3.org/1999/xlink" viewBox="0 0 512 512">
<g id="surface1">
<path style=" stroke:none;fill-rule:nonzero;fill:rgb(0.784314%,46.666667%,74.117647%);fill-opacity:1;" d="M 437.332031 53.332031 L 74.667969 53.332031 L 106.667969 416 L 256 458.667969 L 405.332031 416 Z M 437.332031 53.332031 "/>
<path style=" stroke:none;fill-rule:nonzero;fill:rgb(1.176471%,60.784314%,89.803922%);fill-opacity:1;" d="M 256 85.332031 L 256 425.578125 L 375.464844 391.464844 L 402.132812 85.332031 Z M 256 85.332031 "/>
<path style=" stroke:none;fill-rule:nonzero;fill:rgb(100%,100%,100%);fill-opacity:1;" d="M 353.089844 138.667969 L 256 138.667969 L 256 181.332031 L 308.246094 181.332031 L 305.089844 224 L 256 224 L 256 266.667969 L 302.910156 266.667969 L 299.753906 314.667969 L 256 329.578125 L 256 374.421875 L 340.246094 346.667969 L 347.753906 224 Z M 353.089844 138.667969 "/>
<path style=" stroke:none;fill-rule:nonzero;fill:rgb(93.333333%,93.333333%,93.333333%);fill-opacity:1;" d="M 256 138.667969 L 256 181.332031 L 161.089844 181.332031 L 157.878906 138.667969 Z M 206.910156 224 L 209.089844 266.667969 L 256 266.667969 L 256 224 Z M 211.210938 288 L 168.542969 288 L 171.742188 346.667969 L 256 374.421875 L 256 329.578125 L 212.246094 314.667969 Z M 211.210938 288 "/>
</g>
</svg>
