<?xml version="1.0" encoding="iso-8859-1"?>
<!-- Generator: Adobe Illustrator 19.0.0, SVG Export Plug-In . SVG Version: 6.00 Build 0)  -->
<svg version="1.1" id="Layer_1" xmlns="http://www.w3.org/2000/svg" xmlns:xlink="http://www.w3.org/1999/xlink" x="0px" y="0px"
	 viewBox="0 0 512.003 512.003" style="enable-background:new 0 0 512.003 512.003;" xml:space="preserve">
<g>
	<g>
		<circle cx="257.491" cy="501.971" r="10.032"/>
	</g>
</g>
<g>
	<g>
		<circle cx="257.491" cy="311.301" r="10.032"/>
	</g>
</g>
<g>
	<g>
		<circle cx="70.994" cy="187.541" r="10.032"/>
	</g>
</g>
<g>
	<g>
		<circle cx="441.009" cy="187.541" r="10.032"/>
	</g>
</g>
<g>
	<g>
		<circle cx="418.027" cy="96.113" r="10.032"/>
	</g>
</g>
<g>
	<g>
		<circle cx="362.201" cy="33.694" r="10.032"/>
	</g>
</g>
<g>
	<g>
		<circle cx="255.806" cy="10.032" r="10.032"/>
	</g>
</g>
<g>
	<g>
		<circle cx="156.664" cy="33.694" r="10.032"/>
	</g>
</g>
<g>
	<g>
		<circle cx="96.885" cy="96.113" r="10.032"/>
	</g>
</g>
<g>
	<g>
		<path d="M360.049,83.994c-28.05-27.662-65.166-42.607-104.635-42.045c-37.92,0.528-73.725,15.662-100.82,42.616
			c-27.096,26.955-42.415,62.68-43.134,100.597c-0.801,42.192,16.656,82.651,47.896,111.005
			c13.392,12.154,21.072,29.577,21.072,47.801v20.068c0,12.192,6.195,22.965,15.603,29.336v48.595
			c0,18.182,14.793,32.976,32.975,32.976h56.973c18.183,0,32.976-14.793,32.976-32.976v-48.595
			c9.407-6.371,15.602-17.144,15.602-29.336v-20.068c0-18.172,7.761-35.669,21.296-48.004c30.315-27.628,47.7-66.981,47.7-107.969
			C403.554,148.595,388.104,111.661,360.049,83.994z M298.893,441.966c0,7.12-5.792,12.913-12.913,12.913h-56.972
			c-7.119,0-12.912-5.792-12.912-12.913v-42.524h82.797V441.966z M342.34,281.134c-17.696,16.128-27.845,39.029-27.845,62.833
			v20.068c0,8.462-6.883,15.344-15.344,15.344h-31.625v-33.132c0-5.54-4.492-10.032-10.032-10.032
			c-5.539,0-10.032,4.491-10.032,10.032v33.132h-31.624c-8.462,0-15.345-6.884-15.345-15.344v-20.068
			c0-23.87-10.079-46.708-27.651-62.657c-26.95-24.461-42.011-59.367-41.32-95.768c1.275-67.18,56.979-122.596,124.174-123.532
			c0.604-0.008,1.207-0.013,1.811-0.013c33.338,0,64.689,12.843,88.456,36.281c24.202,23.867,37.53,55.729,37.53,89.716
			C383.491,223.351,368.492,257.3,342.34,281.134z"/>
	</g>
</g>
<g>
	<g>
		<path d="M257.494,89.631c-53.989,0-97.912,43.923-97.912,97.912c0,5.54,4.492,10.032,10.032,10.032
			c5.539,0,10.032-4.491,10.032-10.032c0-42.926,34.923-77.849,77.849-77.849c42.926,0,77.849,34.923,77.849,77.849
			c0,5.54,4.492,10.032,10.032,10.032c5.539,0,10.032-4.491,10.032-10.032C355.407,133.556,311.483,89.631,257.494,89.631z"/>
	</g>
</g>
<g>
	<g>
		<path d="M321.963,254.161c-4.506-20.235-18.823-36.635-37.396-44.857c4.59-6.054,7.321-13.593,7.321-21.759
			c0-19.898-16.189-36.087-36.087-36.087s-36.087,16.189-36.087,36.087c0,8.693,3.091,16.679,8.231,22.915
			c-17.363,8.546-30.616,24.375-34.922,43.701c-0.835,3.747,0.542,7.641,3.544,10.032c17.482,13.912,38.549,21.266,60.925,21.266
			c22.378,0,43.445-7.354,60.926-21.266C321.422,261.802,322.798,257.907,321.963,254.161z M255.802,171.521
			c8.836,0,16.023,7.189,16.023,16.023s-7.188,16.023-16.023,16.023s-16.023-7.189-16.023-16.023
			C239.779,178.709,246.967,171.521,255.802,171.521z M257.494,265.394c-15.545,0-30.293-4.462-43.037-12.965
			c6.594-17.007,23.761-28.799,43.037-28.799c19.278,0,36.444,11.791,43.038,28.799C287.788,260.932,273.04,265.394,257.494,265.394
			z"/>
	</g>
</g>
<g>
</g>
<g>
</g>
<g>
</g>
<g>
</g>
<g>
</g>
<g>
</g>
<g>
</g>
<g>
</g>
<g>
</g>
<g>
</g>
<g>
</g>
<g>
</g>
<g>
</g>
<g>
</g>
<g>
</g>
</svg>
